<svg enable-background="new 0 0 866.53 140" height="140" viewBox="0 0 866.53 140" width="866.53" xmlns="http://www.w3.org/2000/svg"><g fill="#5f6368"><path d="m506.8 106.02v-65.87h20.14c10.11 0 18.2 3.05 24.27 9.15s9.1 14.03 9.1 23.78-3.03 17.68-9.1 23.78-14.16 9.15-24.27 9.15h-20.14zm8.46-8.09h11.68c7.6 0 13.62-2.18 18.07-6.53 4.44-4.35 6.67-10.46 6.67-18.31 0-7.79-2.22-13.88-6.67-18.26-4.44-4.38-10.47-6.58-18.07-6.58h-11.68z"/><path d="m571.49 66.32c4.35-4.57 9.9-6.85 16.64-6.85s12.29 2.29 16.64 6.85c4.35 4.57 6.53 10.29 6.53 17.16s-2.18 12.59-6.53 17.16-9.9 6.85-16.64 6.85-12.29-2.28-16.64-6.85-6.53-10.29-6.53-17.16 2.18-12.59 6.53-17.16zm6.3 28.98c2.91 2.98 6.36 4.46 10.34 4.46s7.43-1.49 10.34-4.46 4.37-6.91 4.37-11.82-1.46-8.85-4.37-11.82-6.36-4.46-10.34-4.46-7.43 1.49-10.34 4.46c-2.91 2.98-4.37 6.92-4.37 11.82 0 4.91 1.46 8.85 4.37 11.82z"/><path d="m617.3 106.02v-45.08h8.09v6.26h.37c1.29-2.15 3.26-3.97 5.93-5.47s5.32-2.25 7.95-2.25c6.99 0 11.74 2.88 14.25 8.65 3.68-5.76 8.92-8.65 15.72-8.65 5.33 0 9.35 1.7 12.04 5.11 2.7 3.4 4.05 8.02 4.05 13.85v27.6h-8.46v-26.33c0-4.54-.83-7.76-2.48-9.66-1.66-1.9-4.17-2.85-7.54-2.85-3.31 0-6.05 1.41-8.23 4.23s-3.26 6.04-3.26 9.66v24.93h-8.46v-26.31c0-4.54-.83-7.76-2.48-9.66-1.66-1.9-4.17-2.85-7.54-2.85-3.31 0-6.05 1.41-8.23 4.23s-3.26 6.04-3.26 9.66v24.93z"/><path d="m708.03 107.49c-4.78 0-8.78-1.38-12-4.14s-4.83-6.41-4.83-10.95c0-4.91 1.9-8.75 5.7-11.55 3.8-2.79 8.49-4.19 14.07-4.19 4.96 0 9.04.92 12.23 2.76v-1.29c0-3.31-1.14-5.96-3.4-7.96-2.27-1.99-5.06-2.99-8.37-2.99-2.45 0-4.67.58-6.67 1.75-1.99 1.17-3.36 2.76-4.09 4.78l-7.72-3.31c1.04-2.7 3.09-5.2 6.16-7.5 3.06-2.3 7.11-3.45 12.14-3.45 5.76 0 10.54 1.69 14.34 5.06s5.7 8.13 5.7 14.26v27.23h-8.09v-6.26h-.37c-3.37 5.18-8.3 7.75-14.8 7.75zm1.38-7.72c3.49 0 6.67-1.3 9.52-3.91s4.27-5.69 4.27-9.25c-2.39-1.96-5.98-2.94-10.76-2.94-4.11 0-7.2.89-9.29 2.67-2.08 1.78-3.13 3.86-3.13 6.26 0 2.21.95 3.96 2.85 5.24 1.91 1.28 4.09 1.93 6.54 1.93z"/><path d="m747.92 49.63c-1.16 1.17-2.57 1.75-4.23 1.75s-3.07-.58-4.23-1.75c-1.16-1.16-1.75-2.58-1.75-4.23 0-1.66.58-3.07 1.75-4.23 1.16-1.16 2.57-1.75 4.23-1.75s3.06.58 4.23 1.75c1.16 1.17 1.75 2.58 1.75 4.23s-.58 3.06-1.75 4.23zm0 56.39h-8.46v-45.08h8.46z"/><path d="m764.82 60.94v6.26h.37c1.22-2.15 3.16-3.97 5.79-5.47 2.64-1.5 5.45-2.25 8.46-2.25 5.58 0 9.84 1.72 12.78 5.15 2.94 3.44 4.41 8.04 4.41 13.8v27.6h-8.46v-26.32c0-8.34-3.71-12.51-11.12-12.51-3.49 0-6.34 1.4-8.55 4.19s-3.31 6.03-3.31 9.71v24.93h-8.46v-45.09z"/><path d="m821.26 107.49c-5.03 0-9.18-1.23-12.46-3.68s-5.69-5.52-7.22-9.2l7.54-3.13c2.39 5.64 6.47 8.46 12.23 8.46 2.63 0 4.79-.58 6.48-1.75 1.69-1.16 2.53-2.7 2.53-4.6 0-2.94-2.05-4.94-6.16-5.98l-9.1-2.21c-2.88-.74-5.61-2.13-8.18-4.19-2.57-2.05-3.86-4.83-3.86-8.33 0-3.99 1.76-7.22 5.29-9.71 3.52-2.48 7.71-3.73 12.55-3.73 3.98 0 7.54.91 10.67 2.71 3.13 1.81 5.36 4.4 6.71 7.77l-7.36 3.04c-1.65-3.99-5.09-5.98-10.3-5.98-2.51 0-4.63.52-6.34 1.56-1.72 1.04-2.57 2.45-2.57 4.23 0 2.58 1.99 4.32 5.98 5.24l8.92 2.12c4.23.98 7.35 2.67 9.38 5.06 2.02 2.39 3.03 5.09 3.03 8.1 0 4.05-1.66 7.42-4.97 10.12-3.33 2.73-7.59 4.08-12.79 4.08z"/><path d="m221.73 107.48c-20.5 0-37.73-16.71-37.73-37.24s17.23-37.24 37.73-37.24c11.34 0 19.41 4.45 25.49 10.26l-7.17 7.17c-4.35-4.09-10.25-7.27-18.32-7.27-14.97 0-26.67 12.08-26.67 27.07s11.7 27.06 26.67 27.06c9.71 0 15.24-3.9 18.78-7.45 2.9-2.91 4.81-7.08 5.53-12.81h-24.57v-10.15h34.46c.36 1.82.54 4 .54 6.36 0 7.63-2.09 17.08-8.8 23.8-6.53 6.8-14.87 10.44-25.94 10.44z"/><path d="m308.08 83.5c0 13.81-10.78 23.98-24.01 23.98s-24.01-10.17-24.01-23.98c0-13.9 10.78-23.98 24.01-23.98s24.01 10.08 24.01 23.98zm-10.51 0c0-8.63-6.25-14.53-13.5-14.53s-13.5 5.9-13.5 14.53c0 8.54 6.25 14.53 13.5 14.53s13.5-6 13.5-14.53z"/><path d="m360.34 83.5c0 13.81-10.78 23.98-24.01 23.98s-24.01-10.18-24.01-23.98c0-13.9 10.78-23.98 24.01-23.98s24.01 10.08 24.01 23.98zm-10.51 0c0-8.63-6.25-14.53-13.5-14.53s-13.5 5.9-13.5 14.53c0 8.54 6.25 14.53 13.5 14.53s13.5-6 13.5-14.53z"/><path d="m410.33 60.97v43.05c0 17.71-10.43 24.98-22.77 24.98-11.61 0-18.59-7.81-21.22-14.17l9.16-3.81c1.63 3.91 5.62 8.54 12.06 8.54 7.89 0 12.79-4.9 12.79-14.08v-3.45h-.36c-2.36 2.91-6.89 5.45-12.61 5.45-11.97 0-22.95-10.44-22.95-23.89 0-13.53 10.98-24.07 22.95-24.07 5.71 0 10.25 2.54 12.61 5.36h.36v-3.91zm-9.26 22.62c0-8.45-5.62-14.62-12.79-14.62-7.26 0-13.33 6.18-13.33 14.62 0 8.36 6.08 14.44 13.33 14.44 7.17 0 12.79-6.09 12.79-14.44z"/><path d="m428.42 35.54v70.48h-10.52v-70.48z"/><path d="m469.2 91.4 8.16 5.45c-2.63 3.91-8.98 10.63-19.95 10.63-13.61 0-23.76-10.54-23.76-23.98 0-14.26 10.25-23.98 22.59-23.98 12.43 0 18.5 9.9 20.5 15.26l1.09 2.72-32.03 13.26c2.45 4.81 6.26 7.27 11.61 7.27s9.07-2.63 11.79-6.63zm-25.13-8.63 21.41-8.9c-1.18-3-4.72-5.09-8.89-5.09-5.35 0-12.79 4.73-12.52 13.99z"/></g><path d="m131.41 7c3.29 0 5.51 3.36 4.21 6.38l-46.37 110.93c-1.76 4.06-5.77 6.69-10.2 6.69h-31.69c-3.29 0-5.59-3.25-4.28-6.27l3.63-8.71 7.92-46.25 23.01-27.97 11.72-28.11c1.75-4.06 5.03-6.69 9.46-6.69z" fill="#4285f4"/><path d="m77.8 41.41c-8.06-7.83-19.1-12.6-31.24-12.47-24.32.27-43.83 20.15-43.56 44.4.26 23.87 19.59 43.07 43.4 43.41.11-.3 21.3-33.56 21.3-33.56s10.1-41.76 10.1-41.78z" fill="#fbbc04"/><path d="m77.8 41.41s-31.43 75.35-31.4 75.35c.38.01.76.01 1.14 0 24.33-.27 43.83-20.14 43.56-44.4-.13-12.14-5.21-23.08-13.3-30.95z" fill="#ea4335"/></svg>